<svg width="23" height="19" viewBox="0 0 23 19" fill="none" xmlns="http://www.w3.org/2000/svg">
<path d="M11.5 8V14M8.5 11H14.5M3.5 18H19.5C20.0304 18 20.5391 17.7893 20.9142 17.4142C21.2893 17.0391 21.5 16.5304 21.5 16V6C21.5 5.46957 21.2893 4.96086 20.9142 4.58579C20.5391 4.21071 20.0304 4 19.5 4H11.57C11.2406 3.9983 10.9167 3.91525 10.6271 3.75824C10.3375 3.60123 10.0912 3.37512 9.91 3.1L9.09 1.9C8.90882 1.62488 8.6625 1.39877 8.3729 1.24176C8.08331 1.08475 7.75941 1.0017 7.43 1H3.5C2.96957 1 2.46086 1.21071 2.08579 1.58579C1.71071 1.96086 1.5 2.46957 1.5 3V16C1.5 17.1 2.4 18 3.5 18Z" stroke="#5A5A5A" stroke-width="2" stroke-linecap="round" stroke-linejoin="round"/>
</svg>
