<svg width="21" height="20" viewBox="0 0 21 20" fill="none" xmlns="http://www.w3.org/2000/svg">
<path d="M10.5 13C8.84315 13 7.5 14.3431 7.5 16C7.5 17.6569 8.84315 19 10.5 19C12.1569 19 13.5 17.6569 13.5 16C13.5 14.3431 12.1569 13 10.5 13ZM10.5 13V10M4.5 7C6.15685 7 7.5 5.65685 7.5 4C7.5 2.34315 6.15685 1 4.5 1C2.84315 1 1.5 2.34315 1.5 4C1.5 5.65685 2.84315 7 4.5 7ZM4.5 7V8C4.5 8.53043 4.71071 9.03914 5.08579 9.41421C5.46086 9.78929 5.96957 10 6.5 10H14.5C15.0304 10 15.5391 9.78929 15.9142 9.41421C16.2893 9.03914 16.5 8.53043 16.5 8V7M16.5 7C18.1569 7 19.5 5.65685 19.5 4C19.5 2.34315 18.1569 1 16.5 1C14.8431 1 13.5 2.34315 13.5 4C13.5 5.65685 14.8431 7 16.5 7Z" stroke="#5A5A5A" stroke-width="2" stroke-linecap="round" stroke-linejoin="round"/>
</svg>
