<svg width="25" height="22" viewBox="0 0 25 22" fill="none" xmlns="http://www.w3.org/2000/svg">
<path d="M11.4772 1C11.1959 0.718795 10.8144 0.560822 10.4167 0.560822C10.0189 0.560822 9.63745 0.718795 9.35616 1L0.885658 9.469C0.744828 9.60983 0.66571 9.80084 0.66571 10C0.66571 10.1992 0.744828 10.3902 0.885658 10.531C1.02649 10.6718 1.21749 10.7509 1.41666 10.7509C1.61582 10.7509 1.80683 10.6718 1.94766 10.531L2.16666 10.3105V18.25C2.16666 18.8467 2.40371 19.419 2.82567 19.841C3.24762 20.2629 3.81992 20.5 4.41666 20.5H5.24166C5.19153 20.2532 5.16641 20.0019 5.16666 19.75V13.6225C4.80835 13.4957 4.48801 13.2802 4.23551 12.9961C3.98302 12.7121 3.8066 12.3686 3.72272 11.9979C3.63885 11.6272 3.65024 11.2413 3.75585 10.8762C3.86146 10.5111 4.05784 10.1787 4.32666 9.91L12.3562 1.879L11.4772 1Z" fill="white"/>
<path d="M13.8562 2.5C14.1374 2.21879 14.5189 2.06082 14.9167 2.06082C15.3144 2.06082 15.6959 2.21879 15.9772 2.5L18.6667 5.1895V3.25C18.6667 3.05109 18.7457 2.86032 18.8863 2.71967C19.027 2.57902 19.2177 2.5 19.4167 2.5H20.9167C21.1156 2.5 21.3063 2.57902 21.447 2.71967C21.5876 2.86032 21.6667 3.05109 21.6667 3.25V8.1895L24.4477 10.969C24.5885 11.1098 24.6676 11.3008 24.6676 11.5C24.6676 11.6992 24.5885 11.8902 24.4477 12.031C24.3068 12.1718 24.1158 12.2509 23.9167 12.2509C23.7175 12.2509 23.5265 12.1718 23.3857 12.031L23.1667 11.8105V19.75C23.1667 20.3467 22.9296 20.919 22.5076 21.341C22.0857 21.7629 21.5134 22 20.9167 22H8.91666C8.31992 22 7.74762 21.7629 7.32567 21.341C6.90371 20.919 6.66666 20.3467 6.66666 19.75V11.8105L6.44766 12.031C6.37793 12.1007 6.29514 12.156 6.20403 12.1938C6.11292 12.2315 6.01527 12.2509 5.91666 12.2509C5.81804 12.2509 5.72039 12.2315 5.62928 12.1938C5.53817 12.156 5.45539 12.1007 5.38566 12.031C5.31593 11.9613 5.26061 11.8785 5.22287 11.7874C5.18513 11.6963 5.16571 11.5986 5.16571 11.5C5.16571 11.4014 5.18513 11.3037 5.22287 11.2126C5.26061 11.1215 5.31593 11.0387 5.38566 10.969L13.8562 2.5Z" fill="white"/>
</svg>
