<svg width="18" height="21" viewBox="0 0 18 21" fill="none" xmlns="http://www.w3.org/2000/svg">
<path d="M5.352 18.742C5.78715 19.2922 6.34165 19.7364 6.97361 20.041C7.60558 20.3455 8.29849 20.5025 9 20.5C9.70152 20.5025 10.3944 20.3455 11.0264 20.041C11.6584 19.7364 12.2129 19.2922 12.648 18.742C10.2271 19.0702 7.77293 19.0702 5.352 18.742ZM15.75 7.5V8.204C15.75 9.049 15.99 9.875 16.442 10.578L17.55 12.301C18.561 13.875 17.789 16.014 16.03 16.511C11.4338 17.813 6.56625 17.813 1.97 16.511C0.211001 16.014 -0.560999 13.875 0.450001 12.301L1.558 10.578C2.01158 9.86936 2.25211 9.04537 2.251 8.204V7.5C2.251 3.634 5.273 0.5 9 0.5C12.727 0.5 15.75 3.634 15.75 7.5Z" fill="white"/>
</svg>
