<svg width="18" height="20" viewBox="0 0 18 20" fill="none" xmlns="http://www.w3.org/2000/svg">
<path d="M8.69798 1.66666H8.33132C7.88929 1.66666 7.46537 1.84225 7.15281 2.15481C6.84025 2.46737 6.66465 2.8913 6.66465 3.33332V3.48332C6.66435 3.77559 6.5872 4.06265 6.44093 4.31569C6.29467 4.56873 6.08443 4.77885 5.83132 4.92499L5.47298 5.13332C5.21962 5.2796 4.93221 5.35661 4.63965 5.35661C4.34709 5.35661 4.05968 5.2796 3.80632 5.13332L3.68132 5.06666C3.29887 4.84604 2.84451 4.78619 2.41799 4.90025C1.99146 5.0143 1.62761 5.29294 1.40632 5.67499L1.22298 5.99166C1.00237 6.3741 0.94252 6.82846 1.05657 7.25499C1.17063 7.68152 1.44926 8.04536 1.83132 8.26666L1.95632 8.34999C2.20821 8.49542 2.41767 8.70423 2.56386 8.95568C2.71005 9.20713 2.78789 9.49247 2.78965 9.78332V10.2083C2.79082 10.502 2.71436 10.7908 2.56802 11.0454C2.42168 11.3 2.21066 11.5115 1.95632 11.6583L1.83132 11.7333C1.44926 11.9546 1.17063 12.3185 1.05657 12.745C0.94252 13.1715 1.00237 13.6259 1.22298 14.0083L1.40632 14.325C1.62761 14.707 1.99146 14.9857 2.41799 15.0997C2.84451 15.2138 3.29887 15.1539 3.68132 14.9333L3.80632 14.8667C4.05968 14.7204 4.34709 14.6434 4.63965 14.6434C4.93221 14.6434 5.21962 14.7204 5.47298 14.8667L5.83132 15.075C6.08443 15.2211 6.29467 15.4313 6.44093 15.6843C6.5872 15.9373 6.66435 16.2244 6.66465 16.5167V16.6667C6.66465 17.1087 6.84025 17.5326 7.15281 17.8452C7.46537 18.1577 7.88929 18.3333 8.33132 18.3333H8.69798C9.14001 18.3333 9.56393 18.1577 9.87649 17.8452C10.1891 17.5326 10.3647 17.1087 10.3647 16.6667V16.5167C10.365 16.2244 10.4421 15.9373 10.5884 15.6843C10.7346 15.4313 10.9449 15.2211 11.198 15.075L11.5563 14.8667C11.8097 14.7204 12.0971 14.6434 12.3897 14.6434C12.6822 14.6434 12.9696 14.7204 13.223 14.8667L13.348 14.9333C13.7304 15.1539 14.1848 15.2138 14.6113 15.0997C15.0378 14.9857 15.4017 14.707 15.623 14.325L15.8063 14C16.0269 13.6175 16.0868 13.1632 15.9727 12.7367C15.8587 12.3101 15.58 11.9463 15.198 11.725L15.073 11.6583C14.8186 11.5115 14.6076 11.3 14.4613 11.0454C14.3149 10.7908 14.2385 10.502 14.2397 10.2083V9.79166C14.2385 9.49797 14.3149 9.2092 14.4613 8.95457C14.6076 8.69994 14.8186 8.4885 15.073 8.34166L15.198 8.26666C15.58 8.04536 15.8587 7.68152 15.9727 7.25499C16.0868 6.82846 16.0269 6.3741 15.8063 5.99166L15.623 5.67499C15.4017 5.29294 15.0378 5.0143 14.6113 4.90025C14.1848 4.78619 13.7304 4.84604 13.348 5.06666L13.223 5.13332C12.9696 5.2796 12.6822 5.35661 12.3897 5.35661C12.0971 5.35661 11.8097 5.2796 11.5563 5.13332L11.198 4.92499C10.9449 4.77885 10.7346 4.56873 10.5884 4.31569C10.4421 4.06265 10.365 3.77559 10.3647 3.48332V3.33332C10.3647 2.8913 10.1891 2.46737 9.87649 2.15481C9.56393 1.84225 9.14001 1.66666 8.69798 1.66666Z" stroke="#9B9B9B" stroke-width="2" stroke-linecap="round" stroke-linejoin="round"/>
<path d="M8.51465 12.5C9.89536 12.5 11.0146 11.3807 11.0146 9.99999C11.0146 8.61928 9.89536 7.49999 8.51465 7.49999C7.13394 7.49999 6.01465 8.61928 6.01465 9.99999C6.01465 11.3807 7.13394 12.5 8.51465 12.5Z" stroke="#9B9B9B" stroke-width="2" stroke-linecap="round" stroke-linejoin="round"/>
</svg>
